<svg width="900" height="420" viewBox="0 0 900 420" fill="none" xmlns="http://www.w3.org/2000/svg" role="img" aria-labelledby="title desc">
  <title id="title">Mompy retro monitor cover</title>
  <desc id="desc">A transparent retro CRT monitor with a green terminal cat on the screen.</desc>
  <defs>
    <filter id="glow" x="-50%" y="-50%" width="200%" height="200%">
      <feGaussianBlur stdDeviation="4" result="blur"/>
      <feColorMatrix in="blur" type="matrix" values="0 0 0 0 0.22 0 0 0 0 1 0 0 0 0 0.08 0 0 0 0.8 0" result="greenBlur"/>
      <feMerge>
        <feMergeNode in="greenBlur"/>
        <feMergeNode in="SourceGraphic"/>
      </feMerge>
    </filter>
    <filter id="softShadow" x="-30%" y="-30%" width="160%" height="180%">
      <feDropShadow dx="0" dy="20" stdDeviation="16" flood-color="#000000" flood-opacity="0.55"/>
    </filter>
    <linearGradient id="metal" x1="150" y1="70" x2="750" y2="350" gradientUnits="userSpaceOnUse">
      <stop stop-color="#2f352f"/>
      <stop offset="0.45" stop-color="#111611"/>
      <stop offset="1" stop-color="#3a3d34"/>
    </linearGradient>
    <radialGradient id="screenGlow" cx="0" cy="0" r="1" gradientUnits="userSpaceOnUse" gradientTransform="translate(450 184) rotate(90) scale(150 270)">
      <stop stop-color="#143a14"/>
      <stop offset="0.55" stop-color="#061506"/>
      <stop offset="1" stop-color="#020602"/>
    </radialGradient>
    <pattern id="scanlines" width="8" height="8" patternUnits="userSpaceOnUse">
      <rect width="8" height="4" fill="#39ff14" opacity="0.035"/>
    </pattern>
  </defs>

  <!-- transparent background intentionally left empty -->

  <g filter="url(#softShadow)">
    <!-- outer monitor body -->
    <path d="M170 72 C170 55 184 42 201 42 H699 C716 42 730 55 730 72 V300 C730 317 716 330 699 330 H201 C184 330 170 317 170 300 V72Z" fill="url(#metal)" stroke="#6f7668" stroke-width="5"/>
    <path d="M192 68 H708 V306 H192 V68Z" fill="#0b0f0b" stroke="#2d352d" stroke-width="6"/>

    <!-- bolts -->
    <circle cx="205" cy="60" r="9" fill="#070907" stroke="#8a907c" stroke-width="2"/>
    <circle cx="695" cy="60" r="9" fill="#070907" stroke="#8a907c" stroke-width="2"/>
    <circle cx="205" cy="312" r="9" fill="#070907" stroke="#8a907c" stroke-width="2"/>
    <circle cx="695" cy="312" r="9" fill="#070907" stroke="#8a907c" stroke-width="2"/>
    <path d="M201 60 L209 60 M205 56 L205 64" stroke="#2d332b" stroke-width="2"/>
    <path d="M691 60 L699 60 M695 56 L695 64" stroke="#2d332b" stroke-width="2"/>
    <path d="M201 312 L209 312 M205 308 L205 316" stroke="#2d332b" stroke-width="2"/>
    <path d="M691 312 L699 312 M695 308 L695 316" stroke="#2d332b" stroke-width="2"/>

    <!-- screen -->
    <rect x="230" y="92" width="440" height="195" rx="18" fill="url(#screenGlow)" stroke="#42ff1c" stroke-opacity="0.45" stroke-width="3"/>
    <rect x="230" y="92" width="440" height="195" rx="18" fill="url(#scanlines)"/>
    <path d="M252 112 H648" stroke="#39ff14" stroke-opacity="0.16" stroke-width="2"/>
    <path d="M252 266 H648" stroke="#39ff14" stroke-opacity="0.12" stroke-width="2"/>

    <!-- side controls -->
    <rect x="687" y="108" width="24" height="24" rx="4" fill="#0e140e" stroke="#42ff1c" stroke-opacity="0.35"/>
    <rect x="687" y="142" width="24" height="24" rx="4" fill="#0e140e" stroke="#42ff1c" stroke-opacity="0.25"/>
    <rect x="687" y="176" width="24" height="24" rx="4" fill="#0e140e" stroke="#42ff1c" stroke-opacity="0.18"/>
    <circle cx="699" cy="120" r="5" fill="#39ff14" opacity="0.55"/>
    <path d="M693 154 H705 M699 148 V160" stroke="#39ff14" stroke-opacity="0.55" stroke-width="2"/>
    <path d="M693 188 H705" stroke="#39ff14" stroke-opacity="0.45" stroke-width="2"/>

    <!-- terminal cat mascot, original simplified cat silhouette -->
    <g filter="url(#glow)" stroke="#39ff14" stroke-width="6" stroke-linecap="round" stroke-linejoin="round">
      <path d="M345 196 C345 154 375 125 417 125 H483 C525 125 555 154 555 196 C555 238 521 263 450 263 C379 263 345 238 345 196Z" fill="none"/>
      <path d="M377 133 L358 103 L407 126" fill="none"/>
      <path d="M523 133 L542 103 L493 126" fill="none"/>
      <circle cx="420" cy="183" r="7" fill="#39ff14" stroke="none"/>
      <circle cx="480" cy="183" r="7" fill="#39ff14" stroke="none"/>
      <path d="M450 197 L443 208 H457 Z" fill="#39ff14" stroke="none"/>
      <path d="M450 211 C439 224 421 226 407 216" fill="none" stroke-width="4"/>
      <path d="M450 211 C461 224 479 226 493 216" fill="none" stroke-width="4"/>
      <path d="M392 202 H335" stroke-width="4" opacity="0.8"/>
      <path d="M394 216 H341" stroke-width="4" opacity="0.65"/>
      <path d="M508 202 H565" stroke-width="4" opacity="0.8"/>
      <path d="M506 216 H559" stroke-width="4" opacity="0.65"/>
    </g>

    <!-- base -->
    <path d="M330 330 H570 L605 370 H295 L330 330Z" fill="#141914" stroke="#5b6354" stroke-width="5"/>
    <rect x="265" y="365" width="370" height="22" rx="8" fill="#111511" stroke="#4d554b" stroke-width="4"/>
  </g>

  <!-- small caption inside screen -->
  <text x="450" y="118" text-anchor="middle" font-family="Consolas, 'Courier New', monospace" font-size="18" fill="#39ff14" opacity="0.82" filter="url(#glow)">MOMPY TRAINING CONSOLE</text>
</svg>
